<?xml version="1.0" standalone="no"?>
<!DOCTYPE svg PUBLIC "-//W3C//DTD SVG 20010904//EN"
 "http://www.w3.org/TR/2001/REC-SVG-20010904/DTD/svg10.dtd">
<svg version="1.0" xmlns="http://www.w3.org/2000/svg"
 width="1080.000000pt" height="560.000000pt" viewBox="0 0 1080.000000 560.000000"
 preserveAspectRatio="xMidYMid meet">
<metadata>
Created by potrace 1.14, written by Peter Selinger 2001-2017
</metadata>
<g transform="translate(0.000000,560.000000) scale(0.100000,-0.100000)"
fill="#000000" stroke="none">
<path d="M1455 3896 c-114 -195 -106 -422 22 -609 81 -119 124 -147 603 -384
l435 -215 -449 -225 c-447 -224 -450 -226 -521 -297 -151 -151 -205 -355 -149
-555 16 -58 67 -166 82 -175 5 -3 18 14 28 37 27 59 134 165 234 229 47 31
182 106 300 168 503 264 597 314 683 367 124 77 161 113 202 197 113 228 74
468 -105 648 l-76 77 -460 226 c-273 134 -498 252 -555 290 -104 70 -194 158
-226 225 l-21 42 -27 -46z"/>
<path d="M3523 3246 c-98 -23 -160 -61 -194 -120 -72 -127 -38 -291 78 -376
23 -17 103 -57 177 -90 75 -32 149 -68 165 -80 57 -40 50 -134 -13 -168 -26
-14 -56 -17 -181 -15 -82 1 -169 4 -192 8 l-43 6 0 -84 0 -85 88 -13 c48 -7
148 -13 222 -13 162 -1 249 21 317 78 102 88 124 283 43 395 -42 57 -103 95
-263 162 -160 67 -190 91 -185 147 2 25 11 41 31 56 27 20 40 21 223 20 l195
-2 -3 77 -3 76 -60 13 c-96 20 -329 24 -402 8z"/>
<path d="M4259 3224 c-61 -18 -104 -60 -119 -112 -7 -29 -10 -158 -8 -406 l3
-363 27 -35 c34 -45 85 -69 159 -75 l59 -6 0 172 0 171 99 0 c174 0 308 38
373 107 49 52 71 118 72 218 1 122 -16 178 -74 236 -53 53 -129 83 -250 99
-110 14 -287 11 -341 -6z m356 -188 c46 -20 67 -56 69 -119 3 -117 -38 -150
-196 -155 l-108 -4 0 134 c0 91 4 138 12 146 17 17 180 16 223 -2z"/>
<path d="M5022 2792 c3 -436 4 -451 24 -479 28 -38 101 -73 168 -80 l57 -6 -3
449 -3 449 -24 34 c-29 40 -93 71 -167 78 l-55 6 3 -451z"/>
<path d="M5817 3036 c-60 -17 -147 -76 -181 -124 -46 -67 -60 -112 -60 -197
-1 -67 3 -89 26 -135 65 -133 206 -212 348 -196 76 9 180 58 180 85 0 28 -6
27 -80 -11 -84 -44 -176 -46 -261 -7 -113 53 -173 145 -173 264 0 85 24 145
81 202 63 63 124 88 213 88 65 0 85 -5 141 -32 78 -39 79 -39 79 -14 0 38
-131 92 -219 90 -25 0 -67 -6 -94 -13z"/>
<path d="M9253 3036 c-62 -20 -103 -54 -125 -103 -23 -52 -18 -90 19 -134 35
-42 82 -63 201 -93 116 -28 165 -54 188 -98 45 -87 -55 -187 -186 -188 -72 0
-113 12 -185 55 -42 26 -61 33 -69 25 -15 -15 22 -45 104 -84 56 -26 76 -31
145 -31 70 0 87 4 135 30 77 42 103 84 98 157 -7 94 -55 131 -231 174 -141 35
-197 73 -197 134 0 72 84 130 187 130 49 0 73 -7 132 -36 40 -20 75 -34 78
-30 14 13 -11 38 -69 67 -73 37 -159 47 -225 25z"/>
<path d="M6332 2713 c3 -284 5 -328 18 -328 13 0 15 43 15 325 0 302 -1 325
-18 328 -16 3 -17 -16 -15 -325z"/>
<path d="M6595 3027 c-3 -7 -4 -154 -3 -327 3 -272 5 -315 18 -315 13 0 16 40
20 280 l5 280 169 -235 c93 -129 185 -257 204 -283 19 -26 39 -46 46 -44 8 3
12 97 14 326 2 304 1 322 -15 319 -17 -3 -18 -26 -23 -278 l-5 -274 -203 282
c-112 155 -208 282 -213 282 -5 0 -12 -6 -14 -13z"/>
<path d="M7286 3025 c-9 -24 -7 -618 2 -633 7 -9 52 -12 193 -10 156 3 184 5
184 18 0 13 -28 16 -170 20 l-170 5 0 130 0 130 150 5 c124 4 150 8 150 20 0
12 -26 16 -150 20 l-150 5 0 130 0 130 170 5 c142 4 170 7 170 20 0 23 -370
28 -379 5z"/>
<path d="M7837 3033 c-4 -3 -7 -149 -7 -324 0 -311 5 -359 31 -318 5 8 9 133
8 278 0 144 2 265 4 267 2 3 51 -61 108 -141 60 -83 111 -145 120 -145 10 0
60 61 120 145 57 80 107 145 111 145 4 0 9 -125 10 -277 3 -239 5 -278 18
-278 13 0 15 43 17 315 2 178 -1 321 -6 329 -14 22 -26 9 -151 -165 -61 -85
-114 -154 -118 -154 -4 0 -61 74 -127 165 -65 91 -122 165 -125 165 -4 0 -10
-3 -13 -7z"/>
<path d="M8739 3013 c-132 -342 -229 -617 -220 -626 17 -17 32 5 62 86 l26 72
156 3 155 2 27 -72 c32 -85 51 -111 65 -89 5 9 2 31 -10 61 -10 26 -62 163
-115 306 -53 142 -101 265 -107 271 -16 20 -28 16 -39 -14z m97 -240 c34 -92
60 -171 58 -175 -7 -10 -264 -11 -264 0 0 4 27 79 60 167 34 88 63 166 66 174
2 8 7 11 11 8 3 -4 34 -82 69 -174z"/>
</g>
</svg>
